<mxfile host="app.diagrams.net" modified="2023-04-10T23:25:10.016Z" agent="Mozilla/5.0 (Macintosh; Intel Mac OS X 10_15_7) AppleWebKit/537.36 (KHTML, like Gecko) Chrome/110.0.0.0 Safari/537.36" etag="vMxw2z3rgkpVW75KQ859" version="21.1.5" type="device">
  <diagram name="Page-1" id="hpIAEij3FD5Tpfyfsa0J">
    <mxGraphModel dx="2419" dy="1874" grid="1" gridSize="10" guides="1" tooltips="1" connect="1" arrows="1" fold="1" page="1" pageScale="1" pageWidth="827" pageHeight="1169" math="0" shadow="0">
      <root>
        <mxCell id="0" />
        <mxCell id="1" parent="0" />
        <mxCell id="AOb-L2UWlB8E0X8S6_ml-1" value="Permits" style="ellipse;whiteSpace=wrap;html=1;" vertex="1" parent="1">
          <mxGeometry x="320" y="210" width="140" height="90" as="geometry" />
        </mxCell>
        <mxCell id="AOb-L2UWlB8E0X8S6_ml-2" value="Building" style="ellipse;whiteSpace=wrap;html=1;" vertex="1" parent="1">
          <mxGeometry x="75" y="340" width="110" height="70" as="geometry" />
        </mxCell>
        <mxCell id="AOb-L2UWlB8E0X8S6_ml-3" value="Owner" style="ellipse;whiteSpace=wrap;html=1;" vertex="1" parent="1">
          <mxGeometry x="80" y="120" width="100" height="70" as="geometry" />
        </mxCell>
        <mxCell id="AOb-L2UWlB8E0X8S6_ml-4" value="Address" style="ellipse;whiteSpace=wrap;html=1;" vertex="1" parent="1">
          <mxGeometry x="-80" y="10" width="90" height="60" as="geometry" />
        </mxCell>
        <mxCell id="AOb-L2UWlB8E0X8S6_ml-5" value="Borough" style="ellipse;whiteSpace=wrap;html=1;" vertex="1" parent="1">
          <mxGeometry x="330" y="530" width="120" height="80" as="geometry" />
        </mxCell>
        <mxCell id="AOb-L2UWlB8E0X8S6_ml-6" value="Filing" style="ellipse;whiteSpace=wrap;html=1;" vertex="1" parent="1">
          <mxGeometry x="715" y="380" width="120" height="80" as="geometry" />
        </mxCell>
        <mxCell id="AOb-L2UWlB8E0X8S6_ml-7" value="Permittee" style="ellipse;whiteSpace=wrap;html=1;" vertex="1" parent="1">
          <mxGeometry x="320" y="-10" width="120" height="80" as="geometry" />
        </mxCell>
        <mxCell id="AOb-L2UWlB8E0X8S6_ml-9" value="" style="endArrow=classic;html=1;rounded=0;entryX=0.5;entryY=1;entryDx=0;entryDy=0;exitX=0.45;exitY=0;exitDx=0;exitDy=0;exitPerimeter=0;" edge="1" parent="1" source="AOb-L2UWlB8E0X8S6_ml-1" target="AOb-L2UWlB8E0X8S6_ml-7">
          <mxGeometry width="50" height="50" relative="1" as="geometry">
            <mxPoint x="380" y="210" as="sourcePoint" />
            <mxPoint x="430" y="160" as="targetPoint" />
          </mxGeometry>
        </mxCell>
        <mxCell id="AOb-L2UWlB8E0X8S6_ml-11" value="" style="endArrow=classic;html=1;rounded=0;entryX=0.5;entryY=1;entryDx=0;entryDy=0;exitX=0.5;exitY=0;exitDx=0;exitDy=0;" edge="1" parent="1" source="AOb-L2UWlB8E0X8S6_ml-5" target="AOb-L2UWlB8E0X8S6_ml-1">
          <mxGeometry width="50" height="50" relative="1" as="geometry">
            <mxPoint x="365" y="410" as="sourcePoint" />
            <mxPoint x="415" y="360" as="targetPoint" />
          </mxGeometry>
        </mxCell>
        <mxCell id="AOb-L2UWlB8E0X8S6_ml-12" value="" style="endArrow=classic;html=1;rounded=0;entryX=0;entryY=0;entryDx=0;entryDy=0;exitX=1;exitY=0.5;exitDx=0;exitDy=0;" edge="1" parent="1" source="AOb-L2UWlB8E0X8S6_ml-1" target="AOb-L2UWlB8E0X8S6_ml-6">
          <mxGeometry width="50" height="50" relative="1" as="geometry">
            <mxPoint x="480" y="340" as="sourcePoint" />
            <mxPoint x="530" y="290" as="targetPoint" />
          </mxGeometry>
        </mxCell>
        <mxCell id="AOb-L2UWlB8E0X8S6_ml-13" value="" style="endArrow=classic;html=1;rounded=0;entryX=0;entryY=0.5;entryDx=0;entryDy=0;exitX=1;exitY=0;exitDx=0;exitDy=0;" edge="1" parent="1" source="AOb-L2UWlB8E0X8S6_ml-2" target="AOb-L2UWlB8E0X8S6_ml-1">
          <mxGeometry width="50" height="50" relative="1" as="geometry">
            <mxPoint x="220" y="330" as="sourcePoint" />
            <mxPoint x="270" y="280" as="targetPoint" />
          </mxGeometry>
        </mxCell>
        <mxCell id="AOb-L2UWlB8E0X8S6_ml-14" value="" style="endArrow=classic;html=1;rounded=0;exitX=1;exitY=0;exitDx=0;exitDy=0;" edge="1" parent="1" source="AOb-L2UWlB8E0X8S6_ml-1" target="AOb-L2UWlB8E0X8S6_ml-15">
          <mxGeometry width="50" height="50" relative="1" as="geometry">
            <mxPoint x="390" y="360" as="sourcePoint" />
            <mxPoint x="440" y="310" as="targetPoint" />
          </mxGeometry>
        </mxCell>
        <mxCell id="AOb-L2UWlB8E0X8S6_ml-15" value="Job" style="ellipse;whiteSpace=wrap;html=1;" vertex="1" parent="1">
          <mxGeometry x="600" y="69.99999999999977" width="120" height="80" as="geometry" />
        </mxCell>
        <mxCell id="AOb-L2UWlB8E0X8S6_ml-16" value="" style="endArrow=classic;html=1;rounded=0;entryX=0.5;entryY=0;entryDx=0;entryDy=0;exitX=0.5;exitY=1;exitDx=0;exitDy=0;" edge="1" parent="1" source="AOb-L2UWlB8E0X8S6_ml-3" target="AOb-L2UWlB8E0X8S6_ml-2">
          <mxGeometry width="50" height="50" relative="1" as="geometry">
            <mxPoint x="210" y="240" as="sourcePoint" />
            <mxPoint x="260" y="190" as="targetPoint" />
          </mxGeometry>
        </mxCell>
        <mxCell id="AOb-L2UWlB8E0X8S6_ml-17" value="" style="endArrow=classic;html=1;rounded=0;entryX=1.003;entryY=0.621;entryDx=0;entryDy=0;exitX=0;exitY=0;exitDx=0;exitDy=0;entryPerimeter=0;" edge="1" parent="1" source="AOb-L2UWlB8E0X8S6_ml-3" target="AOb-L2UWlB8E0X8S6_ml-4">
          <mxGeometry width="50" height="50" relative="1" as="geometry">
            <mxPoint x="210" y="240" as="sourcePoint" />
            <mxPoint x="260" y="190" as="targetPoint" />
          </mxGeometry>
        </mxCell>
        <mxCell id="AOb-L2UWlB8E0X8S6_ml-18" value="has" style="text;html=1;strokeColor=none;fillColor=none;align=center;verticalAlign=middle;whiteSpace=wrap;rounded=0;" vertex="1" parent="1">
          <mxGeometry x="40" y="80" width="60" height="30" as="geometry" />
        </mxCell>
        <mxCell id="AOb-L2UWlB8E0X8S6_ml-19" value="owns" style="text;html=1;strokeColor=none;fillColor=none;align=center;verticalAlign=middle;whiteSpace=wrap;rounded=0;" vertex="1" parent="1">
          <mxGeometry x="130" y="230" width="60" height="30" as="geometry" />
        </mxCell>
        <mxCell id="AOb-L2UWlB8E0X8S6_ml-20" value="has" style="text;html=1;strokeColor=none;fillColor=none;align=center;verticalAlign=middle;whiteSpace=wrap;rounded=0;" vertex="1" parent="1">
          <mxGeometry x="240" y="300" width="60" height="30" as="geometry" />
        </mxCell>
        <mxCell id="AOb-L2UWlB8E0X8S6_ml-21" value="Text" style="text;html=1;strokeColor=none;fillColor=none;align=center;verticalAlign=middle;whiteSpace=wrap;rounded=0;" vertex="1" parent="1">
          <mxGeometry x="210" y="200" width="60" height="30" as="geometry" />
        </mxCell>
        <mxCell id="AOb-L2UWlB8E0X8S6_ml-22" value="" style="endArrow=classic;html=1;rounded=0;entryX=0;entryY=0.5;entryDx=0;entryDy=0;exitX=1;exitY=1;exitDx=0;exitDy=0;" edge="1" parent="1" source="AOb-L2UWlB8E0X8S6_ml-2" target="AOb-L2UWlB8E0X8S6_ml-5">
          <mxGeometry width="50" height="50" relative="1" as="geometry">
            <mxPoint x="210" y="340" as="sourcePoint" />
            <mxPoint x="260" y="290" as="targetPoint" />
          </mxGeometry>
        </mxCell>
        <mxCell id="AOb-L2UWlB8E0X8S6_ml-23" value="is part of" style="text;html=1;strokeColor=none;fillColor=none;align=center;verticalAlign=middle;whiteSpace=wrap;rounded=0;" vertex="1" parent="1">
          <mxGeometry x="250" y="420" width="60" height="30" as="geometry" />
        </mxCell>
        <mxCell id="AOb-L2UWlB8E0X8S6_ml-24" value="issued to" style="text;html=1;strokeColor=none;fillColor=none;align=center;verticalAlign=middle;whiteSpace=wrap;rounded=0;" vertex="1" parent="1">
          <mxGeometry x="384" y="120" width="60" height="30" as="geometry" />
        </mxCell>
        <mxCell id="AOb-L2UWlB8E0X8S6_ml-25" value="has" style="text;html=1;strokeColor=none;fillColor=none;align=center;verticalAlign=middle;whiteSpace=wrap;rounded=0;" vertex="1" parent="1">
          <mxGeometry x="530" y="170" width="60" height="30" as="geometry" />
        </mxCell>
        <mxCell id="AOb-L2UWlB8E0X8S6_ml-26" value="has" style="text;html=1;strokeColor=none;fillColor=none;align=center;verticalAlign=middle;whiteSpace=wrap;rounded=0;" vertex="1" parent="1">
          <mxGeometry x="390" y="440" width="60" height="30" as="geometry" />
        </mxCell>
        <mxCell id="AOb-L2UWlB8E0X8S6_ml-27" value="Job number&lt;br&gt;Job-document-no&lt;br&gt;Job-type" style="text;strokeColor=none;fillColor=none;align=left;verticalAlign=middle;spacingLeft=4;spacingRight=4;overflow=hidden;points=[[0,0.5],[1,0.5]];portConstraint=eastwest;rotatable=0;whiteSpace=wrap;html=1;" vertex="1" parent="1">
          <mxGeometry x="720" y="40" width="110" height="60" as="geometry" />
        </mxCell>
        <mxCell id="AOb-L2UWlB8E0X8S6_ml-28" value="Permitte First Name&lt;br&gt;Permittee Last Name&lt;br&gt;Phone&lt;br&gt;License No&lt;br&gt;Act as superintendent&lt;br&gt;" style="text;strokeColor=none;fillColor=none;align=left;verticalAlign=middle;spacingLeft=4;spacingRight=4;overflow=hidden;points=[[0,0.5],[1,0.5]];portConstraint=eastwest;rotatable=0;whiteSpace=wrap;html=1;" vertex="1" parent="1">
          <mxGeometry x="444" y="-50" width="156" height="80" as="geometry" />
        </mxCell>
        <mxCell id="AOb-L2UWlB8E0X8S6_ml-29" value="Business Type&lt;br&gt;First Name&lt;br&gt;Last Name&lt;br&gt;Phone Number" style="text;strokeColor=none;fillColor=none;align=left;verticalAlign=middle;spacingLeft=4;spacingRight=4;overflow=hidden;points=[[0,0.5],[1,0.5]];portConstraint=eastwest;rotatable=0;whiteSpace=wrap;html=1;" vertex="1" parent="1">
          <mxGeometry x="180" y="80" width="110" height="80" as="geometry" />
        </mxCell>
        <mxCell id="AOb-L2UWlB8E0X8S6_ml-30" value="House number&lt;br&gt;House street number&lt;br&gt;City&lt;br&gt;State&lt;br&gt;Zip code" style="text;strokeColor=none;fillColor=none;align=left;verticalAlign=middle;spacingLeft=4;spacingRight=4;overflow=hidden;points=[[0,0.5],[1,0.5]];portConstraint=eastwest;rotatable=0;whiteSpace=wrap;html=1;" vertex="1" parent="1">
          <mxGeometry x="-190" y="-30" width="110" height="90" as="geometry" />
        </mxCell>
        <mxCell id="AOb-L2UWlB8E0X8S6_ml-31" value="Bin_No&lt;br&gt;House_No&lt;br&gt;Street_Name&lt;br&gt;Community_board_no&lt;br&gt;Zip Code&lt;br&gt;Building Type&lt;br&gt;Residential&lt;br&gt;Latitude&lt;br&gt;Longitude" style="text;strokeColor=none;fillColor=none;align=left;verticalAlign=middle;spacingLeft=4;spacingRight=4;overflow=hidden;points=[[0,0.5],[1,0.5]];portConstraint=eastwest;rotatable=0;whiteSpace=wrap;html=1;" vertex="1" parent="1">
          <mxGeometry x="-50" y="320" width="110" height="140" as="geometry" />
        </mxCell>
        <mxCell id="AOb-L2UWlB8E0X8S6_ml-32" value="Permit_sequence_no&lt;br&gt;Work_type&lt;br&gt;Permit status&lt;br&gt;Permit type&lt;br&gt;permit sub type" style="text;strokeColor=none;fillColor=none;align=left;verticalAlign=middle;spacingLeft=4;spacingRight=4;overflow=hidden;points=[[0,0.5],[1,0.5]];portConstraint=eastwest;rotatable=0;whiteSpace=wrap;html=1;" vertex="1" parent="1">
          <mxGeometry x="414" y="300" width="126" height="90" as="geometry" />
        </mxCell>
        <mxCell id="AOb-L2UWlB8E0X8S6_ml-33" value="Filing status&lt;br&gt;Filing Date&lt;br&gt;Issuance Date&lt;br&gt;Expiration Date&lt;br&gt;Job Start Date" style="text;strokeColor=none;fillColor=none;align=left;verticalAlign=middle;spacingLeft=4;spacingRight=4;overflow=hidden;points=[[0,0.5],[1,0.5]];portConstraint=eastwest;rotatable=0;whiteSpace=wrap;html=1;" vertex="1" parent="1">
          <mxGeometry x="607.5" y="400" width="105" height="80" as="geometry" />
        </mxCell>
      </root>
    </mxGraphModel>
  </diagram>
</mxfile>
